<svg width="56" height="56" viewBox="0 0 56 56" fill="none" xmlns="http://www.w3.org/2000/svg">
<path fill-rule="evenodd" clip-rule="evenodd" d="M28.0609 0C20.6765 0 13.9493 2.32108 9.96854 4.21746C9.60889 4.38859 9.27375 4.5566 8.9615 4.71839C8.34355 5.03886 7.81714 5.33756 7.39864 5.60047L11.927 11.9446L14.0588 12.752C22.3897 16.7516 33.562 16.7516 41.8945 12.752L44.314 11.5572L48.5956 5.60047C47.7087 5.04984 46.7866 4.5526 45.8344 4.11168C41.8733 2.23552 35.3063 0 28.0625 0M17.5311 7.18104C15.9276 6.89551 14.3438 6.5173 12.7886 6.0485C16.5175 4.47259 22.0742 2.80023 28.0625 2.80023C32.21 2.80023 36.1319 3.60297 39.3753 4.62039C35.5744 5.12909 31.5185 5.9925 27.6538 7.05503C24.6131 7.89199 21.059 7.80176 17.5311 7.18104ZM43.6225 15.059L43.2204 15.2519C34.0557 19.6514 21.8993 19.6514 12.7346 15.2519L12.3537 15.0684C-1.4162 29.4445 -11.928 56 28.0609 56C68.0497 56 57.2829 28.9513 43.6225 15.059ZM26.3623 28.0023C25.4952 28.0023 24.6635 28.3301 24.0504 28.9136C23.4372 29.4971 23.0927 30.2885 23.0927 31.1137C23.0927 31.9389 23.4372 32.7303 24.0504 33.3138C24.6635 33.8973 25.4952 34.2251 26.3623 34.2251V28.0023ZM29.6319 24.891V23.3353H26.3623V24.891C24.628 24.891 22.9647 25.5466 21.7384 26.7136C20.5121 27.8806 19.8231 29.4633 19.8231 31.1137C19.8231 32.7641 20.5121 34.3469 21.7384 35.5138C22.9647 36.6808 24.628 37.3364 26.3623 37.3364V43.5592C24.94 43.5592 23.7287 42.6958 23.2774 41.4855C23.2105 41.2874 23.1025 41.1042 22.9599 40.9466C22.8172 40.789 22.6428 40.6602 22.4469 40.5679C22.251 40.4755 22.0377 40.4215 21.8195 40.409C21.6013 40.3965 21.3827 40.4258 21.1766 40.4951C20.9705 40.5644 20.7811 40.6723 20.6196 40.8125C20.4581 40.9526 20.3277 41.1222 20.2363 41.3111C20.1449 41.5001 20.0942 41.7045 20.0872 41.9124C20.0803 42.1203 20.1172 42.3275 20.1958 42.5215C20.6468 43.7349 21.4819 44.7855 22.5863 45.5285C23.6906 46.2715 25.0098 46.6705 26.3623 46.6706V48.2262H29.6319V46.6706C31.3662 46.6706 33.0295 46.0149 34.2558 44.848C35.4822 43.681 36.1711 42.0982 36.1711 40.4478C36.1711 38.7974 35.4822 37.2147 34.2558 36.0477C33.0295 34.8807 31.3662 34.2251 29.6319 34.2251V28.0023C31.0542 28.0023 32.2656 28.8657 32.7168 30.0761C32.7837 30.2741 32.8917 30.4573 33.0344 30.6149C33.177 30.7725 33.3514 30.9013 33.5473 30.9936C33.7432 31.086 33.9565 31.14 34.1747 31.1525C34.3929 31.165 34.6115 31.1357 34.8176 31.0665C35.0237 30.9972 35.2131 30.8892 35.3746 30.7491C35.5362 30.6089 35.6665 30.4393 35.7579 30.2504C35.8494 30.0615 35.9001 29.857 35.907 29.6491C35.9139 29.4412 35.877 29.2341 35.7984 29.04C35.3474 27.8266 34.5123 26.776 33.408 26.033C32.3036 25.29 30.9844 24.891 29.6319 24.891ZM29.6319 37.3364V43.5592C30.4991 43.5592 31.3307 43.2314 31.9439 42.6479C32.557 42.0644 32.9015 41.273 32.9015 40.4478C32.9015 39.6226 32.557 38.8312 31.9439 38.2477C31.3307 37.6642 30.4991 37.3364 29.6319 37.3364Z" fill="#FAC722"/>
</svg>
