<svg width="40" height="40" viewBox="0 0 40 40" fill="none" xmlns="http://www.w3.org/2000/svg">
<path d="M39.9207 25.5193C38.6536 29.6566 36.1142 33.2887 32.6638 35.8989C29.6345 38.1794 26.0297 39.5702 22.254 39.9153C18.4783 40.2604 14.6812 39.5462 11.2888 37.8526C7.89643 36.1591 5.04308 33.5534 3.04904 30.328C1.05499 27.1026 -0.000822213 23.3851 9.59898e-05 19.5928C-0.0135359 15.1665 1.42511 10.8578 4.09532 7.32797C6.70493 3.87685 10.3363 1.33687 14.4726 0.0694949C14.7453 -0.0144675 15.0356 -0.0225076 15.3125 0.0462395C15.5893 0.114987 15.8422 0.25792 16.0439 0.459667C16.2456 0.661414 16.3885 0.914342 16.4572 1.19125C16.5259 1.46816 16.5179 1.75857 16.434 2.03125C15.5295 5.02376 15.4536 8.20565 16.2145 11.2379C16.9754 14.2701 18.5445 17.039 20.7546 19.2496C22.9648 21.4602 25.7331 23.0297 28.7646 23.7907C31.7962 24.5518 34.9774 24.4759 37.9692 23.5713C38.2418 23.4873 38.5322 23.4793 38.809 23.548C39.0859 23.6168 39.3387 23.7597 39.5404 23.9614C39.7421 24.1632 39.885 24.4161 39.9538 24.693C40.0225 24.9699 40.0145 25.2603 39.9305 25.533L39.9207 25.5193Z" fill="#42D292"/>
</svg>
