<svg width="64" height="64" viewBox="0 0 64 64" fill="none" xmlns="http://www.w3.org/2000/svg">
<path d="M54.4 0H9.6C4.16 0 0 4.16 0 9.6V54.4C0 59.84 4.16 64 9.6 64H54.4C59.84 64 64 59.84 64 54.4V9.6C64 4.16 59.84 0 54.4 0ZM19.2 48C19.2 49.92 17.92 51.2 16 51.2C14.08 51.2 12.8 49.92 12.8 48V35.2C12.8 33.28 14.08 32 16 32C17.92 32 19.2 33.28 19.2 35.2V48ZM35.2 48C35.2 49.92 33.92 51.2 32 51.2C30.08 51.2 28.8 49.92 28.8 48V16C28.8 14.08 30.08 12.8 32 12.8C33.92 12.8 35.2 14.08 35.2 16V48ZM51.2 48C51.2 49.92 49.92 51.2 48 51.2C46.08 51.2 44.8 49.92 44.8 48V28.8C44.8 26.88 46.08 25.6 48 25.6C49.92 25.6 51.2 26.88 51.2 28.8V48Z" fill="#252422"/>
</svg>
