<svg width="40" height="40" viewBox="0 0 40 40" fill="none" xmlns="http://www.w3.org/2000/svg">
<path d="M34 26.4509C34 28.7277 33.0402 30.6882 31.1207 32.3326C29.2011 33.9769 26.7076 34.9926 23.6402 35.3795V39.2857C23.6402 39.494 23.5534 39.6652 23.3798 39.7991C23.2061 39.933 22.9843 40 22.7142 40H18.8076C18.5568 40 18.3398 39.9293 18.1565 39.7879C17.9732 39.6466 17.8816 39.4792 17.8816 39.2857V35.3795C16.6083 35.2455 15.3784 35.0149 14.192 34.6875C13.0055 34.3601 12.0265 34.029 11.2548 33.6942C10.4831 33.3594 9.7693 33.0022 9.11337 32.6228C8.45745 32.2433 8.00891 31.9643 7.76776 31.7857C7.52661 31.6071 7.35781 31.4732 7.26135 31.3839C6.93338 31.0714 6.91409 30.7664 7.20347 30.4688L10.1841 27.4554C10.3191 27.3065 10.541 27.2173 10.8497 27.1875C11.139 27.1577 11.3705 27.2247 11.5442 27.3884L11.602 27.433C13.782 28.9063 16.126 29.8363 18.634 30.2232C19.3478 30.3423 20.0616 30.4018 20.7754 30.4018C22.338 30.4018 23.7126 30.0818 24.899 29.442C26.0855 28.8021 26.6787 27.8943 26.6787 26.7188C26.6787 26.3021 26.534 25.9077 26.2446 25.5357C25.9553 25.1637 25.6321 24.8512 25.2752 24.5982C24.9183 24.3452 24.354 24.0662 23.5823 23.7612C22.8107 23.4561 22.174 23.218 21.6724 23.0469C21.1708 22.8757 20.3992 22.6339 19.3574 22.3214C18.605 22.0833 18.0118 21.8973 17.5777 21.7634C17.1437 21.6295 16.5504 21.4323 15.798 21.1719C15.0457 20.9115 14.4428 20.6808 13.9894 20.4799C13.5361 20.279 12.9911 20.0149 12.3544 19.6875C11.7178 19.3601 11.2017 19.0439 10.8062 18.7388C10.4108 18.4338 9.99116 18.0692 9.54744 17.6451C9.10373 17.221 8.7613 16.7894 8.52015 16.3504C8.279 15.9115 8.07643 15.4167 7.91245 14.8661C7.74847 14.3155 7.66648 13.7351 7.66648 13.125C7.66648 11.0714 8.61178 9.27083 10.5024 7.72321C12.393 6.1756 14.8527 5.17857 17.8816 4.73214V0.714286C17.8816 0.520833 17.9732 0.353423 18.1565 0.212054C18.3398 0.0706845 18.5568 0 18.8076 0H22.7142C22.9843 0 23.2061 0.0669643 23.3798 0.200893C23.5534 0.334821 23.6402 0.505952 23.6402 0.714286V4.64286C24.7399 4.73214 25.8057 4.90327 26.8379 5.15625C27.87 5.40923 28.7092 5.65848 29.3555 5.90402C30.0017 6.14955 30.6143 6.42857 31.193 6.74107C31.7718 7.05357 32.148 7.26935 32.3216 7.38839C32.4952 7.50744 32.6399 7.61161 32.7557 7.70089C33.0836 7.96875 33.1319 8.25149 32.9004 8.54911L30.5564 11.808C30.402 12.0313 30.1802 12.1503 29.8908 12.1652C29.6207 12.2098 29.3603 12.1577 29.1095 12.0089C29.0516 11.9643 28.9117 11.875 28.6899 11.7411C28.468 11.6071 28.0918 11.41 27.5613 11.1496C27.0308 10.8891 26.4665 10.651 25.8684 10.4353C25.2704 10.2195 24.5518 10.026 23.7126 9.85491C22.8734 9.68378 22.0486 9.59821 21.2384 9.59821C19.4056 9.59821 17.9105 9.91816 16.753 10.558C15.5955 11.1979 15.0167 12.0238 15.0167 13.0357C15.0167 13.4226 15.0987 13.7798 15.2627 14.1071C15.4267 14.4345 15.7112 14.7433 16.1164 15.0335C16.5215 15.3237 16.9025 15.5692 17.2594 15.7701C17.6163 15.971 18.1565 16.2016 18.8799 16.4621C19.6034 16.7225 20.187 16.9234 20.6307 17.0647C21.0744 17.2061 21.7496 17.4107 22.6563 17.6786C23.6788 17.9762 24.4601 18.2106 25.0003 18.3817C25.5405 18.5528 26.2736 18.8132 27.1996 19.1629C28.1256 19.5126 28.8539 19.8289 29.3844 20.1116C29.9149 20.3943 30.513 20.7664 31.1786 21.2277C31.8441 21.689 32.3554 22.1615 32.7123 22.6451C33.0692 23.1287 33.373 23.6979 33.6238 24.3527C33.8746 25.0074 34 25.7068 34 26.4509Z" fill="#42D292"/>
</svg>
