<svg width="40" height="40" viewBox="0 0 40 40" fill="none" xmlns="http://www.w3.org/2000/svg">
<path d="M33.7273 33.4943L34.7216 38.0114C34.7784 38.2386 34.75 38.4517 34.6364 38.6506C34.5227 38.8494 34.3617 38.9867 34.1534 39.0625L34.0114 39.0909C33.9356 39.1288 33.8362 39.1619 33.7131 39.1903C33.59 39.2188 33.4384 39.2614 33.2585 39.3182C33.0786 39.375 32.875 39.4271 32.6477 39.4744C32.4205 39.5218 32.179 39.5691 31.9233 39.6165C31.6676 39.6638 31.3835 39.7112 31.071 39.7585C30.7585 39.8059 30.4413 39.8485 30.1193 39.8864C29.7973 39.9242 29.4517 39.9527 29.0824 39.9716C28.7131 39.9905 28.3485 40 27.9886 40C23.5568 40 19.6837 38.7642 16.3693 36.2926C13.0549 33.821 10.8011 30.4924 9.60795 26.3068H6.90909C6.66288 26.3068 6.44981 26.2169 6.26989 26.0369C6.08996 25.857 6 25.6439 6 25.3977V22.1875C6 21.9413 6.08996 21.7282 6.26989 21.5483C6.44981 21.3684 6.66288 21.2784 6.90909 21.2784H8.78409C8.74621 20.1989 8.75568 19.2045 8.8125 18.2955H6.90909C6.64394 18.2955 6.42614 18.2102 6.25568 18.0398C6.08523 17.8693 6 17.6515 6 17.3864V14.1477C6 13.8826 6.08523 13.6648 6.25568 13.4943C6.42614 13.3239 6.64394 13.2386 6.90909 13.2386H9.69318C10.9621 9.26136 13.268 6.06061 16.6108 3.63636C19.9536 1.21212 23.7462 0 27.9886 0C29.9205 0 31.7576 0.217803 33.5 0.653409C33.7083 0.710227 33.8977 0.852273 34.0682 1.07955C34.1818 1.28788 34.2102 1.51515 34.1534 1.76136L32.9318 6.27841C32.875 6.52462 32.7424 6.70928 32.5341 6.83239C32.3258 6.95549 32.0985 6.97917 31.8523 6.90341L31.7386 6.875C31.6629 6.85606 31.554 6.83239 31.4119 6.80398L30.9148 6.70455L30.2756 6.60511L29.5369 6.51989L28.7131 6.44886L27.875 6.42045C25.4886 6.42045 23.3485 7.02652 21.4545 8.23864C19.5606 9.45076 18.1402 11.1174 17.1932 13.2386H30.4886C30.7917 13.2386 31.0284 13.3523 31.1989 13.5795C31.3883 13.8068 31.4545 14.053 31.3977 14.3182L30.7159 17.5568C30.6212 18.0492 30.3182 18.2955 29.8068 18.2955H15.9432C15.8864 18.9962 15.8864 19.9905 15.9432 21.2784H28.983C29.267 21.2784 29.5038 21.392 29.6932 21.6193C29.8636 21.8466 29.9205 22.1023 29.8636 22.3864L29.1818 25.5682C29.1439 25.7765 29.0398 25.9517 28.8693 26.0938C28.6989 26.2358 28.5095 26.3068 28.3011 26.3068H17.3068C18.2159 28.5227 19.6316 30.2794 21.554 31.5767C23.4763 32.8741 25.6402 33.5227 28.0455 33.5227C28.3864 33.5227 28.7273 33.5085 29.0682 33.4801C29.4091 33.4517 29.7263 33.4186 30.0199 33.3807C30.3134 33.3428 30.5928 33.3002 30.858 33.2528C31.1231 33.2055 31.3551 33.1581 31.554 33.1108C31.7528 33.0634 31.928 33.0208 32.0795 32.983L32.4205 32.8977L32.5625 32.8409C32.8087 32.7462 33.0549 32.7652 33.3011 32.8977C33.5284 33.0303 33.6705 33.2292 33.7273 33.4943Z" fill="#42D292"/>
</svg>
