<svg width="34" height="34" viewBox="0 0 34 34" fill="none" xmlns="http://www.w3.org/2000/svg">
<path d="M34 5.3125C34 6.50781 33.0504 7.61016 31.45 8.5C29.5176 9.56914 26.6355 10.3262 23.3285 10.552C23.0828 10.4324 22.8371 10.3195 22.5781 10.2199C19.9617 9.12422 16.482 8.5 12.75 8.5C12.1988 8.5 11.6609 8.51328 11.123 8.53984L11.05 8.5C9.44961 7.61016 8.5 6.50781 8.5 5.3125C8.5 2.37734 14.2109 0 21.25 0C28.2891 0 34 2.37734 34 5.3125ZM10.6715 10.698C11.3488 10.6516 12.0461 10.625 12.75 10.625C16.8805 10.625 20.5461 11.4418 22.877 12.7102C24.5238 13.6066 25.5 14.7223 25.5 15.9375C25.5 16.2031 25.4535 16.4621 25.3605 16.7145C25.0551 17.591 24.2316 18.3945 23.0363 19.0719C23.0297 19.0785 23.0164 19.0785 23.0098 19.0852C22.9898 19.0984 22.9699 19.1051 22.95 19.1184C20.6258 20.4066 16.9203 21.2434 12.75 21.2434C8.79219 21.2434 5.25273 20.493 2.90859 19.3109C2.78242 19.2512 2.66289 19.1848 2.54336 19.1184C0.949609 18.2352 0 17.1328 0 15.9375C0 13.6266 3.54609 11.6543 8.5 10.9305C9.19727 10.8309 9.92109 10.7512 10.6715 10.698ZM27.625 15.9375C27.625 14.4832 26.9211 13.2879 26.0246 12.3914C27.9039 12.0992 29.6238 11.6344 31.0848 11.0301C32.1672 10.5785 33.1766 10.0207 34 9.33672V11.6875C34 12.9691 32.9043 14.1512 31.0914 15.0676C30.1219 15.559 28.9398 15.9773 27.6117 16.2961C27.6184 16.1766 27.625 16.0637 27.625 15.9441V15.9375ZM25.5 22.3125C25.5 23.5078 24.5504 24.6102 22.95 25.5C22.8305 25.5664 22.7109 25.6262 22.5848 25.6926C20.2473 26.8746 16.7078 27.625 12.75 27.625C8.57969 27.625 4.87422 26.7883 2.55 25.5C0.949609 24.6102 0 23.5078 0 22.3125V19.9617C0.830078 20.6457 1.83281 21.2035 2.91523 21.6551C5.53828 22.7508 9.01797 23.375 12.75 23.375C16.482 23.375 19.9617 22.7508 22.5848 21.6551C23.1027 21.4426 23.6008 21.1969 24.0723 20.9313C24.4773 20.7055 24.8559 20.4531 25.2145 20.1875C25.3141 20.1145 25.407 20.0348 25.5 19.9617V20.566V22.3125ZM27.625 22.3125V18.4676C28.8867 18.1887 30.0488 17.8367 31.0848 17.4051C32.1672 16.9535 33.1766 16.3957 34 15.7117V18.0625C34 18.7598 33.668 19.457 33.0105 20.1145C31.9281 21.1969 30.0223 22.0867 27.6117 22.6645C27.6184 22.5516 27.625 22.432 27.625 22.3125ZM12.75 29.75C16.482 29.75 19.9617 29.1258 22.5848 28.0301C23.6672 27.5785 24.6766 27.0207 25.5 26.3367V28.6875C25.5 31.6227 19.7891 34 12.75 34C5.71094 34 0 31.6227 0 28.6875V26.3367C0.830078 27.0207 1.83281 27.5785 2.91523 28.0301C5.53828 29.1258 9.01797 29.75 12.75 29.75Z" fill="#FE5100"/>
</svg>
