<svg width="40" height="40" viewBox="0 0 40 40" fill="none" xmlns="http://www.w3.org/2000/svg">
<path d="M27.6825 32.5L26.7225 36.5125C26.2625 38.44 24.56 39.8375 22.5475 39.9875L22.1875 40H17.8125C15.7675 40 13.975 38.71 13.3725 36.845L13.2775 36.5125L12.32 32.5H27.6825ZM20 0C28.285 0 35 6.4925 35 14.5C35 18.6925 33.1375 22.54 29.49 25.985C29.332 26.1341 29.2083 26.3158 29.1275 26.5175L29.0625 26.72L28.2775 30H11.7225L10.94 26.7225C10.8732 26.4405 10.7255 26.1842 10.515 25.985C7.04 22.705 5.1825 19.06 5.015 15.0975L5 14.5L5.0075 14.0225C5.27 6.235 11.8825 0 20 0Z" fill="#42D292"/>
</svg>
