<svg width="64" height="64" viewBox="0 0 64 64" fill="none" xmlns="http://www.w3.org/2000/svg">
<path d="M17.2311 32C17.2311 31.2285 17.4904 30.4885 17.9521 29.943C18.4137 29.3974 19.0398 29.0909 19.6927 29.0909H41.8469V10.1818C41.8469 4.36364 36.6483 0 32.0006 0H8.61554C6.33131 0.00288768 4.14133 1.07654 2.52613 2.98538C0.910934 4.89421 0.00244347 7.48232 0 10.1818V53.8182C0.00244347 56.5177 0.910934 59.1058 2.52613 61.0146C4.14133 62.9235 6.33131 63.9971 8.61554 64H33.2314C35.5156 63.9971 37.7056 62.9235 39.3208 61.0146C40.936 59.1058 41.8445 56.5177 41.8469 53.8182V34.9091H19.6927C19.0398 34.9091 18.4137 34.6026 17.9521 34.057C17.4904 33.5115 17.2311 32.7715 17.2311 32ZM63.2796 29.9436L50.9717 15.3982C50.5063 14.8757 49.8866 14.5886 49.2447 14.5984C48.6028 14.6081 47.9895 14.9137 47.5356 15.4502C47.0817 15.9866 46.823 16.7114 46.8148 17.47C46.8066 18.2285 47.0495 18.9609 47.4916 19.5109L55.5964 29.0909H41.8469V34.9091H55.5964L47.4916 44.4891C47.2534 44.7565 47.0629 45.0776 46.9314 45.4335C46.7998 45.7893 46.7299 46.1726 46.7257 46.5609C46.7215 46.9491 46.7831 47.3345 46.9069 47.6942C47.0307 48.0538 47.2142 48.3806 47.4465 48.6552C47.6788 48.9297 47.9553 49.1465 48.2597 49.2928C48.564 49.4391 48.8901 49.5119 49.2186 49.507C49.5471 49.502 49.8715 49.4194 50.1726 49.2639C50.4737 49.1084 50.7454 48.8833 50.9717 48.6018L63.2796 34.0564C63.7409 33.5109 64 32.7712 64 32C64 31.2288 63.7409 30.4891 63.2796 29.9436Z" fill="#252422"/>
</svg>
