<svg width="64" height="64" viewBox="0 0 64 64" fill="none" xmlns="http://www.w3.org/2000/svg">
<path d="M63.3748 0.807735C63.15 0.560722 62.8775 0.361853 62.5736 0.223145C62.2698 0.0844371 61.941 0.00877098 61.6071 0.000718284C61.2732 -0.00733441 60.9411 0.0523936 60.631 0.176294C60.3208 0.300194 60.039 0.485693 59.8025 0.721581L57.8995 2.61542C57.6688 2.84621 57.5393 3.15914 57.5393 3.48542C57.5393 3.8117 57.6688 4.12463 57.8995 4.35542L59.6441 6.09695C59.7584 6.21184 59.8944 6.30302 60.0441 6.36523C60.1938 6.42744 60.3543 6.45946 60.5164 6.45946C60.6785 6.45946 60.839 6.42744 60.9887 6.36523C61.1384 6.30302 61.2743 6.21184 61.3887 6.09695L63.2441 4.2508C64.1825 3.31388 64.2702 1.78773 63.3748 0.807735ZM54.0518 6.46157L26.2795 34.1846C26.1112 34.3523 25.9888 34.5605 25.9242 34.7892L24.6396 38.6153C24.6088 38.7191 24.6066 38.8293 24.6332 38.9343C24.6599 39.0392 24.7144 39.1351 24.7909 39.2116C24.8675 39.2882 24.9633 39.3427 25.0683 39.3693C25.1732 39.396 25.2834 39.3938 25.3872 39.363L29.2103 38.0784C29.439 38.0138 29.6472 37.8914 29.8149 37.723L57.5379 9.94771C57.7944 9.68848 57.9383 9.33853 57.9383 8.97387C57.9383 8.6092 57.7944 8.25925 57.5379 8.00002L56.0071 6.46157C55.7476 6.20274 55.396 6.0574 55.0295 6.0574C54.6629 6.0574 54.3113 6.20274 54.0518 6.46157Z" fill="#252422"/>
<path d="M52.0522 22.4097L33.2999 41.1989C32.5751 41.9254 31.6843 42.4646 30.7045 42.7697L26.7199 44.1035C25.7743 44.3706 24.7745 44.3806 23.8237 44.1327C22.8729 43.8847 22.0053 43.3877 21.3105 42.6929C20.6157 41.9981 20.1187 41.1306 19.8708 40.1797C19.6228 39.2289 19.6329 38.2292 19.8999 37.2835L21.2338 33.2989C21.538 32.3194 22.076 31.4286 22.8015 30.7035L41.5906 11.9482C41.7629 11.7762 41.8802 11.5569 41.9278 11.3182C41.9755 11.0795 41.9512 10.832 41.8582 10.607C41.7651 10.3821 41.6075 10.1898 41.4051 10.0544C41.2028 9.91909 40.9649 9.84679 40.7214 9.84668H8.61536C6.33042 9.84668 4.13907 10.7544 2.52338 12.3701C0.907688 13.9858 0 16.1771 0 18.462V55.385C0 57.6699 0.907688 59.8613 2.52338 61.477C4.13907 63.0927 6.33042 64.0004 8.61536 64.0004H45.5383C47.8233 64.0004 50.0146 63.0927 51.6303 61.477C53.246 59.8613 54.1537 57.6699 54.1537 55.385V23.2789C54.1536 23.0355 54.0813 22.7976 53.9459 22.5952C53.8106 22.3929 53.6183 22.2352 53.3933 22.1422C53.1684 22.0492 52.9209 22.0249 52.6822 22.0725C52.4434 22.1201 52.2242 22.2375 52.0522 22.4097Z" fill="#252422"/>
</svg>
