<svg width="64" height="64" viewBox="0 0 64 64" fill="none" xmlns="http://www.w3.org/2000/svg">
<path d="M23.2438 64L21.9702 53.76C21.2803 53.4933 20.6297 53.1733 20.0183 52.8C19.407 52.4267 18.8105 52.0267 18.2289 51.6L8.75622 55.6L0 40.4L8.19901 34.16C8.14594 33.7867 8.1194 33.4261 8.1194 33.0784V30.9216C8.1194 30.5739 8.14594 30.2133 8.19901 29.84L0 23.6L8.75622 8.4L18.2289 12.4C18.8126 11.9733 19.4229 11.5733 20.0597 11.2C20.6965 10.8267 21.3333 10.5067 21.9702 10.24L23.2438 0H40.7562L42.0299 10.24C42.7197 10.5067 43.3703 10.8267 43.9817 11.2C44.593 11.5733 45.1895 11.9733 45.7712 12.4L55.2438 8.4L64 23.6L55.801 29.84C55.8541 30.2133 55.8806 30.5739 55.8806 30.9216V33.0784C55.8806 33.4261 55.8275 33.7867 55.7214 34.16L63.9204 40.4L55.1642 55.6L45.7712 51.6C45.1874 52.0267 44.5771 52.4267 43.9403 52.8C43.3035 53.1733 42.6667 53.4933 42.0299 53.76L40.7562 64H23.2438ZM32.1592 43.2C35.2372 43.2 37.864 42.1067 40.0398 39.92C42.2156 37.7333 43.3035 35.0933 43.3035 32C43.3035 28.9067 42.2156 26.2667 40.0398 24.08C37.864 21.8933 35.2372 20.8 32.1592 20.8C29.0282 20.8 26.3875 21.8933 24.2372 24.08C22.0869 26.2667 21.0128 28.9067 21.0149 32C21.0149 35.0933 22.089 37.7333 24.2372 39.92C26.3854 42.1067 29.0261 43.2 32.1592 43.2Z" fill="#252422"/>
</svg>
